<svg width="67" height="54" viewBox="0 0 67 54" fill="none" xmlns="http://www.w3.org/2000/svg">
<path d="M54.1231 46.7964C47.7382 46.7964 42.6569 41.6729 42.7735 35.3527C42.8901 29.0325 48.1605 23.9089 54.5454 23.9089C60.9302 23.9089 66.0116 29.0325 65.895 35.3527C65.8868 35.7946 65.8534 36.2307 65.7963 36.6596" stroke="#1D1D1D" stroke-miterlimit="10" stroke-linecap="round" stroke-linejoin="round"/>
<path d="M55.1398 34.2729L45.5129 6.30005" stroke="#1D1D1D" stroke-linecap="round" stroke-linejoin="round"/>
<path d="M46.4064 10.7163L24.6464 18.0734L19.2957 25.4322" stroke="#1D1D1D" stroke-miterlimit="10" stroke-linecap="round" stroke-linejoin="round"/>
<path d="M21.7924 11.4517L31.7808 30.5821" stroke="#1D1D1D" stroke-miterlimit="10" stroke-linecap="round" stroke-linejoin="round"/>
<path d="M35.3478 30.5818L45.8188 10.9148" stroke="#1D1D1D" stroke-miterlimit="10" stroke-linecap="round" stroke-linejoin="round"/>
<path d="M34.2799 30.5818H12.874C10.7072 30.5818 8.95068 32.3934 8.95068 34.628V34.6296C8.95068 36.8642 10.7072 38.6758 12.874 38.6758H34.2799C36.4467 38.6758 38.2032 36.8642 38.2032 34.6296V34.628C38.2032 32.3934 36.4467 30.5818 34.2799 30.5818Z" stroke="#1D1D1D" stroke-miterlimit="10" stroke-linecap="round" stroke-linejoin="round"/>
<path d="M16.0835 11.4517H26.7864" stroke="#1D1D1D" stroke-miterlimit="10" stroke-linecap="round" stroke-linejoin="round"/>
<path d="M53.5432 6.30005H43.1975" stroke="#1D1D1D" stroke-miterlimit="10" stroke-linecap="round" stroke-linejoin="round"/>
<path d="M12.454 46.8C18.8388 46.8 24.0147 41.6756 24.0147 35.3544C24.0147 29.0331 18.8388 23.9087 12.454 23.9087C6.06922 23.9087 0.893311 29.0331 0.893311 35.3544C0.893311 41.6756 6.06922 46.8 12.454 46.8Z" stroke="#1D1D1D"/>
<path fill-rule="evenodd" clip-rule="evenodd" d="M60.108 35.1558C60.1664 35.1193 60.2326 35.1001 60.3 35.1001C60.3673 35.1001 60.4335 35.1193 60.4919 35.1558L65.9115 38.5401C65.9707 38.5771 66.0201 38.6305 66.0543 38.695C66.0886 38.7595 66.1066 38.8328 66.1066 38.9073V39.5165C66.1066 41.3829 65.5503 43.1985 64.5217 44.6884C63.4931 46.1785 62.0483 47.2616 60.406 47.7741C60.3367 47.7957 60.2632 47.7957 60.1939 47.7741C58.5518 47.2613 57.1071 46.1781 56.0786 44.6882C55.05 43.1983 54.4936 41.3828 54.4933 39.5165V38.9073C54.4933 38.8328 54.5113 38.7595 54.5456 38.695C54.5799 38.6305 54.6292 38.5771 54.6884 38.5401L60.108 35.1558Z" fill="#1D1D1D"/>
<path d="M63.4266 39.6001L59.8533 43.6791L58.0667 41.6396" stroke="white" stroke-linecap="round" stroke-linejoin="round"/>
</svg>
