<svg width="69" height="54" viewBox="0 0 69 54" fill="none" xmlns="http://www.w3.org/2000/svg">
<g clip-path="url(#clip0_181_1116)">
<path d="M1.33496 1.80005H58.6006V43.9846H1.33496" stroke="#1D1D1D" stroke-linecap="round" stroke-linejoin="round"/>
<path d="M22.9436 1.95215V19.9585" stroke="#1D1D1D" stroke-linecap="round" stroke-linejoin="round"/>
<path d="M24.2766 7.95117H54.4665" stroke="#1D1D1D" stroke-linecap="round" stroke-linejoin="round"/>
<path d="M24.2749 13.96H54.4647" stroke="#1D1D1D" stroke-linecap="round" stroke-linejoin="round"/>
<path d="M1.17969 19.969H54.4663" stroke="#1D1D1D" stroke-linecap="round" stroke-linejoin="round"/>
<path d="M1.33301 25.5073H34.6512" stroke="#1D1D1D" stroke-linecap="round" stroke-linejoin="round"/>
<path d="M1.33301 31.9729H34.6512" stroke="#1D1D1D" stroke-linecap="round" stroke-linejoin="round"/>
<path d="M1.33301 38.4385H34.6512" stroke="#1D1D1D" stroke-linecap="round" stroke-linejoin="round"/>
<path d="M2.02075 6.71615C2.02075 6.83091 2.10811 6.92132 2.21899 6.92132C2.32987 6.92132 2.41724 6.83091 2.41724 6.71615C2.41724 6.6014 2.32987 6.51099 2.21899 6.51099C2.10811 6.51099 2.02075 6.6014 2.02075 6.71615Z" fill="#1D1D1D" stroke="#1D1D1D" stroke-width="1.2" stroke-linecap="round" stroke-linejoin="round"/>
<path d="M6.12207 6.71615C6.12207 6.83091 6.20943 6.92132 6.32031 6.92132C6.43119 6.92132 6.51856 6.83091 6.51856 6.71615C6.51856 6.6014 6.43119 6.51099 6.32031 6.51099C6.20943 6.51099 6.12207 6.6014 6.12207 6.71615Z" fill="#1D1D1D" stroke="#1D1D1D" stroke-width="1.2" stroke-linecap="round" stroke-linejoin="round"/>
<path d="M10.22 6.71615C10.22 6.83091 10.3074 6.92132 10.4182 6.92132C10.5291 6.92132 10.6165 6.83091 10.6165 6.71615C10.6165 6.6014 10.5291 6.51099 10.4182 6.51099C10.3074 6.51099 10.22 6.6014 10.22 6.71615Z" fill="#1D1D1D" stroke="#1D1D1D" stroke-width="1.2" stroke-linecap="round" stroke-linejoin="round"/>
<path d="M14.3193 6.71615C14.3193 6.83091 14.4067 6.92132 14.5176 6.92132C14.6284 6.92132 14.7158 6.83091 14.7158 6.71615C14.7158 6.6014 14.6284 6.51099 14.5176 6.51099C14.4067 6.51099 14.3193 6.6014 14.3193 6.71615Z" fill="#1D1D1D" stroke="#1D1D1D" stroke-width="1.2" stroke-linecap="round" stroke-linejoin="round"/>
<path d="M18.4172 6.71615C18.4172 6.83091 18.5046 6.92132 18.6155 6.92132C18.7264 6.92132 18.8137 6.83091 18.8137 6.71615C18.8137 6.6014 18.7264 6.51099 18.6155 6.51099C18.5046 6.51099 18.4172 6.6014 18.4172 6.71615Z" fill="#1D1D1D" stroke="#1D1D1D" stroke-width="1.2" stroke-linecap="round" stroke-linejoin="round"/>
<path d="M2.02075 15.2152C2.02075 15.33 2.10811 15.4204 2.21899 15.4204C2.32987 15.4204 2.41724 15.33 2.41724 15.2152C2.41724 15.1005 2.32987 15.01 2.21899 15.01C2.10811 15.01 2.02075 15.1005 2.02075 15.2152Z" fill="#1D1D1D" stroke="#1D1D1D" stroke-width="1.2" stroke-linecap="round" stroke-linejoin="round"/>
<path d="M6.12207 15.2149C6.12207 15.3296 6.20943 15.4201 6.32031 15.4201C6.43119 15.4201 6.51856 15.3296 6.51856 15.2149C6.51856 15.1001 6.43119 15.0098 6.32031 15.0098C6.20943 15.0098 6.12207 15.1001 6.12207 15.2149Z" fill="#1D1D1D" stroke="#1D1D1D" stroke-width="1.2" stroke-linecap="round" stroke-linejoin="round"/>
<path d="M10.22 15.2149C10.22 15.3296 10.3074 15.4201 10.4182 15.4201C10.5291 15.4201 10.6165 15.3296 10.6165 15.2149C10.6165 15.1001 10.5291 15.0098 10.4182 15.0098C10.3074 15.0098 10.22 15.1001 10.22 15.2149Z" fill="#1D1D1D" stroke="#1D1D1D" stroke-width="1.2" stroke-linecap="round" stroke-linejoin="round"/>
<path d="M14.3193 15.2152C14.3193 15.33 14.4067 15.4204 14.5176 15.4204C14.6284 15.4204 14.7158 15.33 14.7158 15.2152C14.7158 15.1005 14.6284 15.01 14.5176 15.01C14.4067 15.01 14.3193 15.1005 14.3193 15.2152Z" fill="#1D1D1D" stroke="#1D1D1D" stroke-width="1.2" stroke-linecap="round" stroke-linejoin="round"/>
<path d="M18.4172 15.2147C18.4172 15.3295 18.5046 15.4199 18.6155 15.4199C18.7264 15.4199 18.8137 15.3295 18.8137 15.2147C18.8137 15.1 18.7264 15.0095 18.6155 15.0095C18.5046 15.0095 18.4172 15.1 18.4172 15.2147Z" fill="#1D1D1D" stroke="#1D1D1D" stroke-width="1.2" stroke-linecap="round" stroke-linejoin="round"/>
<path d="M3.87402 10.8787C3.87402 10.9934 3.96138 11.0839 4.07226 11.0839C4.18315 11.0839 4.2705 10.9934 4.2705 10.8787C4.2705 10.7639 4.18315 10.6736 4.07226 10.6736C3.96138 10.6736 3.87402 10.7639 3.87402 10.8787Z" fill="#1D1D1D" stroke="#1D1D1D" stroke-width="1.2" stroke-linecap="round" stroke-linejoin="round"/>
<path d="M7.96997 10.8785C7.96997 10.9932 8.05733 11.0837 8.16822 11.0837C8.2791 11.0837 8.36646 10.9932 8.36646 10.8785C8.36646 10.7637 8.2791 10.6733 8.16822 10.6733C8.05733 10.6733 7.96997 10.7637 7.96997 10.8785Z" fill="#1D1D1D" stroke="#1D1D1D" stroke-width="1.2" stroke-linecap="round" stroke-linejoin="round"/>
<path d="M12.0713 10.8785C12.0713 10.9932 12.1587 11.0837 12.2695 11.0837C12.3804 11.0837 12.4678 10.9932 12.4678 10.8785C12.4678 10.7637 12.3804 10.6733 12.2695 10.6733C12.1587 10.6733 12.0713 10.7637 12.0713 10.8785Z" fill="#1D1D1D" stroke="#1D1D1D" stroke-width="1.2" stroke-linecap="round" stroke-linejoin="round"/>
<path d="M16.1692 10.8787C16.1692 10.9934 16.2565 11.0839 16.3674 11.0839C16.4783 11.0839 16.5656 10.9934 16.5656 10.8787C16.5656 10.7639 16.4783 10.6736 16.3674 10.6736C16.2565 10.6736 16.1692 10.7639 16.1692 10.8787Z" fill="#1D1D1D" stroke="#1D1D1D" stroke-width="1.2" stroke-linecap="round" stroke-linejoin="round"/>
<path d="M46.6801 38.1489L42.6919 41.8308" stroke="#1D1D1D" stroke-linecap="round" stroke-linejoin="round"/>
<path d="M41.9913 33.2781L38.231 37.1846" stroke="#1D1D1D" stroke-linecap="round" stroke-linejoin="round"/>
<path d="M36.4835 46.1846C37.8429 46.1846 38.945 45.0397 38.945 43.6274C38.945 42.2152 37.8429 41.0703 36.4835 41.0703C35.1241 41.0703 34.022 42.2152 34.022 43.6274C34.022 45.0397 35.1241 46.1846 36.4835 46.1846Z" fill="#1D1D1D"/>
<path d="M56.5277 27.6753L60.5134 23.5346C60.5134 23.5346 70.125 24.7517 67.5464 14.7666L63.092 19.394L60.0448 16.2284L64.6163 11.4792C64.6163 11.4792 54.8875 8.67874 56.059 19.1507C55.5904 19.6375 52.1904 23.1695 52.1904 23.1695" stroke="#1D1D1D" stroke-linecap="round" stroke-linejoin="round"/>
<path d="M63.325 49.8385L67.6622 45.3327L52.4234 29.5018L50.4319 29.3801L50.6662 27.1881L48.6733 25.1191L44.219 29.7465L46.329 31.9372L48.3219 31.5721L48.0875 34.0075L63.325 49.8385Z" stroke="#1D1D1D" stroke-linecap="round" stroke-linejoin="round"/>
<path d="M36.3659 17.2033H33.5518L30.7388 12.5773L32.3802 11.1155L36.6002 14.0377L36.3659 17.2033Z" fill="#1D1D1D"/>
<path d="M36.3659 17.2033H33.5518L30.7388 12.5773L32.3802 11.1155L36.6002 14.0377L36.3659 17.2033ZM36.3659 17.2033L46.3354 27.5469" stroke="#1D1D1D" stroke-linecap="round" stroke-linejoin="round"/>
</g>
<defs>
<clipPath id="clip0_181_1116">
<rect width="68.6118" height="54" fill="white"/>
</clipPath>
</defs>
</svg>
