<svg width="59" height="54" viewBox="0 0 59 54" fill="none" xmlns="http://www.w3.org/2000/svg">
<path d="M47.4803 52.9169C53.3454 52.9169 58.1001 48.1621 58.1001 42.2967C58.1001 36.4313 53.3454 31.6765 47.4803 31.6765C41.6151 31.6765 36.8604 36.4313 36.8604 42.2967C36.8604 48.1621 41.6151 52.9169 47.4803 52.9169Z" stroke="#1D1D1D" stroke-linecap="round" stroke-linejoin="round"/>
<path d="M21.7397 42.4798C21.7397 36.6144 16.9851 31.8596 11.1199 31.8596C5.2547 31.8596 0.5 36.6144 0.5 42.4798C0.5 48.3452 5.2547 53.1 11.1199 53.1C16.9851 53.1 21.7397 48.3452 21.7397 42.4798Z" stroke="#1D1D1D" stroke-linecap="round" stroke-linejoin="round"/>
<path d="M13.5517 44.588C14.9649 43.1748 14.9649 40.8835 13.5517 39.4703C12.1386 38.0571 9.84733 38.0571 8.43415 39.4704C7.02097 40.8835 7.02097 43.1748 8.43415 44.588C9.84733 46.0012 12.1386 46.0012 13.5517 44.588Z" fill="#1D1D1D"/>
<path d="M51.5099 42.9414C51.964 41.0172 50.7723 39.0891 48.848 38.6349C46.9238 38.1807 44.9957 39.3725 44.5416 41.2968C44.0875 43.2211 45.2792 45.1491 47.2034 45.6034C49.1276 46.0575 51.0557 44.8657 51.5099 42.9414Z" fill="#1D1D1D"/>
<path d="M11.6567 42.6594L21.697 43.3431L24.7642 43.5529" stroke="#1D1D1D" stroke-linecap="round" stroke-linejoin="round"/>
<path d="M21.9817 27.5833L11.2981 41.9403" stroke="#1D1D1D" stroke-linecap="round" stroke-linejoin="round"/>
<path d="M39.0295 23.551L28.0679 26.104" stroke="#1D1D1D" stroke-linecap="round" stroke-linejoin="round"/>
<path d="M40.9952 28.0125L30.6394 39.4919" stroke="#1D1D1D" stroke-linecap="round" stroke-linejoin="round"/>
<path d="M27.8572 9.539C30.2428 9.539 32.1767 7.60508 32.1767 5.21946C32.1767 2.83383 30.2428 0.899902 27.8572 0.899902C25.4717 0.899902 23.5378 2.83383 23.5378 5.21946C23.5378 7.60508 25.4717 9.539 27.8572 9.539Z" stroke="#1D1D1D" stroke-linecap="round" stroke-linejoin="round"/>
<path d="M47.2984 42.2995L37.7568 20.6722L40.4588 19.9807" stroke="#1D1D1D" stroke-linecap="round" stroke-linejoin="round"/>
<path d="M37.8503 20.6766L37.7572 20.6704L31.4583 20.3395L27.4992 16.7393L24.9791 22.4992L28.0664 26.1041L31.4566 30.06L30.6378 39.4916L30.237 44.1094C30.1764 44.8195 29.847 45.4457 29.356 45.8964C28.865 46.3469 28.2124 46.6188 27.4992 46.6188C25.9315 46.6188 24.6792 45.309 24.7553 43.7412L24.7647 43.5517L25.338 31.4989L21.9819 27.5832L18.8589 23.9381L21.4769 12.5922C22.2336 9.31532 25.6984 8.45914 27.8582 10.2584L33.9769 15.2974H36.8575C37.653 15.2974 38.3724 15.6206 38.8929 16.1411C39.415 16.6617 39.7366 17.3826 39.7366 18.1782C39.7366 19.112 39.1416 20.1297 38.3118 20.5259C38.1642 20.5958 38.0088 20.6471 37.8473 20.6735C37.8193 20.6782 37.7913 20.6829 37.7634 20.6844C37.7027 20.6922 37.6391 20.6953 37.5769 20.6953" stroke="#1D1D1D" stroke-linecap="round" stroke-linejoin="round"/>
<path d="M21.3353 7.54697L10.5493 5.08844C10.0163 4.96697 9.48575 5.30054 9.36434 5.83351L6.10652 20.127C5.98502 20.6599 6.31856 21.1905 6.85154 21.312L17.6376 23.7705C18.1706 23.892 18.7011 23.5584 18.8225 23.0254L22.0803 8.73195C22.2018 8.19899 21.8683 7.66845 21.3353 7.54697Z" stroke="#1D1D1D" stroke-linecap="round" stroke-linejoin="round"/>
<path d="M24.9792 46.6204H30.3785" stroke="#1D1D1D" stroke-linecap="round" stroke-linejoin="round"/>
</svg>
